<svg xmlns="http://www.w3.org/2000/svg" width="32" height="32" viewBox="0 0 32 32">
  <g fill="none">
    <circle cx="16" cy="16" r="16" fill="#000000"/>
    <path d="M9.925 20.648l2.083 2.046c.099.097.219.168.352.207.459.134.925.207 1.395.217h7.997a.73.73 0 00.518-.207.684.684 0 00.217-.503.684.684 0 00-.217-.503.73.73 0 00-.518-.207h-7.764a.39.39 0 01-.384-.384.39.39 0 01.384-.384h8.394c.24 0 .478-.044.7-.13.224-.087.426-.213.596-.372l2.083-2.046a.688.688 0 00.218-.503.688.688 0 00-.218-.503.73.73 0 00-.518-.207H9.925a.73.73 0 00-.518.207.684.684 0 00-.217.503c0 .188.078.37.217.503zm0-6.687l2.083 2.046c.099.097.219.168.352.207.459.134.925.207 1.395.217h7.997a.73.73 0 00.518-.207.684.684 0 00.217-.503.684.684 0 00-.217-.503.73.73 0 00-.518-.207h-7.764a.39.39 0 01-.384-.384.39.39 0 01.384-.384h8.394c.24 0 .478-.044.7-.13.224-.087.426-.213.596-.372l2.083-2.046a.688.688 0 00.218-.503.688.688 0 00-.218-.503.73.73 0 00-.518-.207H9.925a.73.73 0 00-.518.207.684.684 0 00-.217.503c0 .188.078.37.217.503z" fill="#FFF"/>
  </g>
</svg>

